<svg version="1.2" xmlns="http://www.w3.org/2000/svg" viewBox="0 0 500 500" width="500" height="500">
	<style>
		.s0 { fill: #003154 } 
		.s1 { fill: #b60505 } 
	</style>
	<g id="OBJECTS">
		<g>
			<g style="opacity: .2">
				<path class="s0" d="m62.81 223.48c0 0-57.21 112.46 55.9 174.94 89.44 37.49 123.64-32.88 107.2-71.68-10.37-24.48-34.31-37.84-66.42-19.73l-19.73-53.27c0 0 88.47-10.68 79.58-63.14-6.58-38.8-93.39-11.18-113.78 13.16l-33.54-51.96c0 0 80.89-59.85 143.37-28.94 62.48 30.91 55.24 107.86-10.53 143.37 0 0 49.97 14.97 71.03 69.06 24.33 62.47-3.95 154.54-113.77 143.36-109.83-11.18-169.68-147.97-99.31-255.17z"/>
				<path class="s0" d="m218.02 280.04c0 0 55.24 20.39 82.87-19.73 27.62-40.11 29.59-70.37 94.7-70.37 76.11 0 120.5 110.67 59.19 189.41-62.48 80.23-173.63 44.72-140.08-49.33 0 0 19.07 62.48 84.17 30.26 65.11-32.23 36.18-121.01 5.92-129.56-30.25-8.55-51.29-11.84-84.18 46.69-32.88 58.53-77.6 19.07-77.6 19.07z"/>
				<path class="s0" d="m240.38 63.02c0 0 14.47 61.16 76.29 61.16 61.82 0 94.7-40.12 94.7-40.12l33.54 46.04c0 0-38.8 44.06-107.2 41.43-68.39-2.63-98.65-54.59-97.33-108.51z"/>
				<path class="s0" d="m283.13 70.25l36.83 35.51 38.8-36.83-39.46-37.48z"/>
			</g>
			<g>
				<path class="s1" d="m46.31 212.04c0 0-57.22 112.45 55.9 174.93 89.44 37.49 123.64-32.88 107.2-71.68-10.37-24.48-34.31-37.84-66.42-19.73l-19.73-53.27c0 0 88.46-10.68 79.57-63.14-6.57-38.8-93.38-11.18-113.77 13.16l-33.54-51.96c0 0 80.89-59.84 143.37-28.94 62.47 30.91 55.24 107.86-10.53 143.37 0 0 49.97 14.97 71.03 69.06 24.33 62.48-3.95 154.55-113.77 143.37-109.83-11.18-169.68-147.98-99.31-255.17z"/>
				<path class="s1" d="m201.52 268.6c0 0 55.24 20.38 82.86-19.74 27.62-40.11 29.6-70.37 94.7-70.37 76.12 0 120.5 110.67 59.19 189.41-62.48 80.23-173.62 44.72-140.08-49.32 0 0 19.07 62.47 84.18 30.25 65.11-32.23 36.17-121.01 5.92-129.56-30.25-8.55-51.3-11.84-84.18 46.69-32.88 58.53-77.6 19.07-77.6 19.07z"/>
				<path class="s1" d="m223.88 51.57c0 0 14.46 61.16 76.29 61.16 61.81 0 94.7-40.12 94.7-40.12l33.54 46.04c0 0-38.8 44.06-107.2 41.43-68.4-2.63-98.65-54.58-97.33-108.51z"/>
				<path class="s1" d="m266.62 58.8l36.83 35.52 38.8-36.83-39.46-37.49z"/>
			</g>
		</g>
	</g>
</svg>